<?xml version="1.0" encoding="utf-8"?>
<svg version="1.1" xmlns:cc="http://creativecommons.org/ns#" xmlns:dc="http://purl.org/dc/elements/1.1/" xmlns:inkscape="http://www.inkscape.org/namespaces/inkscape" xmlns:rdf="http://www.w3.org/1999/02/22-rdf-syntax-ns#" xmlns:sodipodi="http://sodipodi.sourceforge.net/DTD/sodipodi-0.dtd" xmlns:svg="http://www.w3.org/2000/svg"
	 xmlns="http://www.w3.org/2000/svg" xmlns:xlink="http://www.w3.org/1999/xlink" x="0px" y="0px" viewBox="0 0 748 149.3"
	 xml:space="preserve">

   <g id="layer1" transform="translate(0,-269.18633)">
   	<g id="g3091" transform="translate(-0.16566933)">
			<path fill="#fff" d="M640.4,394.4H8.5c-1.4,0-2.5-1.1-2.5-2.5s1.1-2.5,2.5-2.5h626.8V352h32v-32h72.4c1.4,0,2.5,1.1,2.5,2.5
				s-1.1,2.5-2.5,2.5h-67.4v32h-32V394.4z"/>

 			<path fill="#fff" d="M116.7,326.7c-2.5-2.5-5.4-4.5-8.6-5.8c-3.3-1.4-6.8-2.1-10.5-2.1s-7.2,0.7-10.5,2.1
 				c-3.2,1.3-6.1,3.3-8.6,5.8c-2.5,2.5-4.5,5.4-5.8,8.6c-1.4,3.3-2.1,6.8-2.1,10.5s0.7,7.2,2.1,10.5c1.3,3.2,3.3,6.1,5.8,8.6
 				c2.5,2.5,5.4,4.5,8.6,5.8c3.3,1.4,6.8,2.1,10.5,2.1s7.2-0.7,10.5-2.1c3.2-1.3,6.1-3.3,8.6-5.8c2.5-2.5,4.5-5.4,5.8-8.6
 				c1.4-3.3,2.1-6.8,2.1-10.5s-0.7-7.2-2.1-10.5C121.1,332.1,119.2,329.2,116.7,326.7z M116.2,345.7c0,5-1.9,9.7-5.4,13.1
 				c-3.5,3.5-8.2,5.4-13.1,5.4s-9.7-1.9-13.1-5.4c-3.5-3.5-5.4-8.2-5.4-13.1s1.9-9.7,5.4-13.1c3.5-3.5,8.2-5.4,13.1-5.4
 				s9.7,1.9,13.1,5.4C114.2,336.1,116.2,340.7,116.2,345.7z"/>
 			<path fill="#fff" d="M181.8,349.4c0,4-1.6,7.7-4.4,10.5c-2.8,2.8-6.5,4.4-10.5,4.4s-7.7-1.6-10.5-4.4c-2.8-2.8-4.4-6.5-4.4-10.5
 				v-30.7h-8.4v30.7c0,3.2,0.6,6.3,1.8,9.1c1.2,2.8,2.8,5.3,5,7.4c2.1,2.1,4.6,3.8,7.4,5c2.8,1.2,5.9,1.8,9.1,1.8s6.3-0.6,9.1-1.8
 				c2.8-1.2,5.3-2.8,7.4-5c2.1-2.1,3.8-4.6,5-7.4c1.2-2.8,1.8-5.9,1.8-9.1v-30.7h-8.4V349.4z"/>
 			<polygon fill="#fff" points="209.1,327.2 226.5,327.2 226.5,372.7 235,372.7 235,327.2 252.3,327.2 252.3,318.7 209.1,318.7
 				"/>
 			<path fill="#fff" d="M308.3,347c3.1-3.1,4.9-7.3,4.9-11.7c0-4.4-1.7-8.5-4.9-11.7c-3.1-3.1-7.3-4.9-11.7-4.9h-23.6v54h8.4v-20.9
 				h8.2l14.8,20.9h10.3l-15-21.2C303,350.9,306,349.3,308.3,347z M304.7,335.2c0,4.5-3.6,8.2-8.1,8.2h-15.1v-16.2h15.1
 				C301.1,327.2,304.7,330.8,304.7,335.2z"/>
 			<polygon fill="#fff" points="345,348 366,348 366,339.6 345,339.6 345,327.2 369.7,327.2 369.7,318.7 336.6,318.7 336.6,372.7
 				371.3,372.7 371.3,364.3 345,364.3 			"/>
 			<path fill="#fff" d="M412.8,318.7l-24.1,54h9.3l5.4-12h27.6l5.4,12h9.3l-24.2-54H412.8z M427.2,352.3h-20.1l10-22.5L427.2,352.3z
 				"/>
 			<path fill="#fff" d="M484.5,327.2c5,0,9.7,1.9,13.1,5.4l0.8,0.8l5.9-5.9l-0.8-0.8c-2.5-2.5-5.4-4.5-8.6-5.8
 				c-3.3-1.4-6.8-2.1-10.5-2.1c-3.6,0-7.2,0.7-10.5,2.1c-3.2,1.3-6.1,3.3-8.6,5.8c-2.5,2.5-4.5,5.4-5.8,8.6
 				c-1.4,3.3-2.1,6.8-2.1,10.5s0.7,7.2,2.1,10.5c1.3,3.2,3.3,6.1,5.8,8.6c2.5,2.5,5.4,4.5,8.6,5.8c3.3,1.4,6.8,2.1,10.5,2.1
 				c3.6,0,7.2-0.7,10.5-2.1c3.2-1.3,6.1-3.3,8.6-5.8l0.8-0.8l-5.9-5.9l-0.8,0.8c-3.5,3.5-8.2,5.4-13.1,5.4s-9.7-1.9-13.1-5.4
 				c-3.5-3.5-5.4-8.2-5.4-13.1c0-5,1.9-9.7,5.4-13.1C474.9,329.1,479.5,327.2,484.5,327.2z"/>
 			<polygon fill="#fff" points="558.8,320 557.7,320 557.7,339.8 531.3,339.8 531.3,318.9 522.9,318.9 522.9,372.7 531.3,372.7
 				531.3,348.3 557.7,348.3 557.7,372.9 566.1,372.9 566.1,318.9 558.8,318.9 			"/>
 			<polygon fill="#fff" points="620.6,318.7 620.6,319.8 620.6,319.8 620.6,319.8 620.6,319.8 619.7,319.2 607.2,336.6 594.5,318.7
 				584.1,318.7 603,345.2 603,372.7 611.4,372.7 611.4,345.2 630.4,318.7 			"/>
   	</g>
   </g>
</svg>
