<?xml version="1.0" encoding="UTF-8" standalone="no"?>
<svg
   xmlns:dc="http://purl.org/dc/elements/1.1/"
   xmlns:cc="http://creativecommons.org/ns#"
   xmlns:rdf="http://www.w3.org/1999/02/22-rdf-syntax-ns#"
   xmlns:svg="http://www.w3.org/2000/svg"
   xmlns="http://www.w3.org/2000/svg"
   xmlns:sodipodi="http://sodipodi.sourceforge.net/DTD/sodipodi-0.dtd"
   xmlns:inkscape="http://www.inkscape.org/namespaces/inkscape"
   version="1.1"
   id="Layer_1"
   x="0px"
   y="0px"
   viewBox="0 0 1792.828 1674.84"
   enable-background="new 0 0 1792.828 1674.84"
   xml:space="preserve"
   sodipodi:docname="mailbox-colour.svg"
   inkscape:version="0.92.1 r15371"><metadata
   id="metadata6283"><rdf:RDF><cc:Work
       rdf:about=""><dc:format>image/svg+xml</dc:format><dc:type
         rdf:resource="http://purl.org/dc/dcmitype/StillImage" /></cc:Work></rdf:RDF></metadata><defs
   id="defs6281" /><sodipodi:namedview
   pagecolor="#ffffff"
   bordercolor="#666666"
   borderopacity="1"
   objecttolerance="10"
   gridtolerance="10"
   guidetolerance="10"
   inkscape:pageopacity="0"
   inkscape:pageshadow="2"
   inkscape:window-width="1366"
   inkscape:window-height="706"
   id="namedview6279"
   showgrid="false"
   inkscape:snap-global="false"
   inkscape:zoom="0.13641449"
   inkscape:cx="896.414"
   inkscape:cy="531.64408"
   inkscape:window-x="-8"
   inkscape:window-y="-8"
   inkscape:window-maximized="1"
   inkscape:current-layer="g6276" />
<g
   id="g6276">
	
	<g
   id="g6850"><path
     inkscape:connector-curvature="0"
     id="path6840"
     d="m 730.39558,1051.8216 -1.9111,552.3077 170.08784,9.5555 -1.91109,-565.6854 z"
     style="fill:#796151;fill-opacity:1;stroke:none;stroke-width:1px;stroke-linecap:butt;stroke-linejoin:miter;stroke-opacity:1" /><path
     inkscape:connector-curvature="0"
     id="path6828"
     d="M 1156.7751,397.41965 H 347.7422 L 170.32271,510.96813 70.967795,766.45219 v 283.87121 l 1511.614005,-28.3871 -7.0967,-440.00038 -14.1936,-42.58068 -70.9678,7.09678 -70.9678,-113.54847 -149.0324,-49.67746 z"
     style="fill:#d1c9c9;stroke:none;stroke-width:1px;stroke-linecap:butt;stroke-linejoin:miter;stroke-opacity:1;fill-opacity:1" /><path
     inkscape:connector-curvature="0"
     id="path6832"
     d="m 1179.1483,413.51436 -152.8879,82.17727 -21.0221,49.68859 487.3303,0 -82.1772,-112.75487 -166.2657,-28.66649 z"
     style="fill:#bba8a8;stroke:none;stroke-width:1px;stroke-linecap:butt;stroke-linejoin:miter;stroke-opacity:1;fill-opacity:1" /><path
     inkscape:connector-curvature="0"
     id="path6834"
     d="m 1010.9716,543.46912 h 554.2188 l 24.8443,122.31036 -11.4666,376.48662 -684.17358,-1.9111 49.68859,-340.17573 z"
     style="fill:#dfdfdc;stroke:none;stroke-width:1px;stroke-linecap:butt;stroke-linejoin:miter;stroke-opacity:1;fill-opacity:1" /><path
     inkscape:connector-curvature="0"
     id="path6838"
     d="m 575.24092,59.960966 c 0,0 9.5555,149.065754 9.5555,145.243554 0,-3.8222 317.2425,11.4666 317.2425,11.4666 v 175.82114 l 80.26618,3.8222 -11.4666,-334.442395 z"
     style="fill:#65110e;stroke:none;stroke-width:1px;stroke-linecap:butt;stroke-linejoin:miter;stroke-opacity:1;fill-opacity:1" /><path
     id="path6272"
     d="M571.753,39.121c5.845-2.45-22.427-1.75,409.89-1.662c9.988-0.098,19.573,6.423,23.192,15.714   c2.942,6.758,1.512-11.162,1.805,320.26c261.534,0.117,286.207-4.414,345.64,14.946c68.941,22.216,121.705,68.254,162.118,128.018   c7.629,0.063,15.259-0.089,22.897,0.08c34.225,1.21,63.182,30.065,63.286,65.456c0.121,455.172,0.85,424.446-1.974,435.11   c43.006,0.018,86.021-0.009,129.028,0.018c16.449-0.308,29.028,16.166,24.094,32.17c-5.974,20.987-28.105,17.826-34.01,17.983   c-268.642,0-537.292,0.009-805.934,0c-0.058,592.607,4.789,557.117-12.596,566.827c-7.871,4.643,0.391,3.359-175.688,3.359   c-15.433,0.115-26.301-12.621-25.63-26.363c0.054-181.235-0.089-362.471,0.071-543.706c-14.169-0.184-226.447-0.032-636.491-0.107   c-8.558,0.08-16.768-4.574-21.396-11.712c0-162.435-2.172-168.806,8.353-240.394c24.89-171.773,91.245-364.476,255.17-423.577   c65.279-23.703,61.654-17.812,573.947-18.135c-0.08-45.356,0.009-90.712-0.036-136.067c-98.385,0.045-196.771-0.018-295.156,0.027   c-17.322,0.387-26.926-13.212-26.685-25.264c0-49.742,0-99.484,0-149.226C555.351,52.602,562.114,42.659,571.753,39.121    M605.754,87.756c0.188,33.126,0.036,66.26,0.072,99.386c116.869,0.054,233.738,0.036,350.598,0.009   c0.009-33.161-0.036-66.323,0.027-99.484C839.555,87.693,722.65,87.514,605.754,87.756 M927.64,237.42   c0.098,45.32,0.089,90.64,0,135.951c9.604,0.161,19.207,0.054,28.82,0.054c-0.072-45.356-0.045-90.712-0.018-136.058   C946.838,237.384,937.235,237.259,927.64,237.42 M369.684,426.633C139.771,459.878,83.4,784.842,85.856,1017.053   c263.88,0,527.76,0,791.64-0.009c-2.503-201.189,38.625-479.196,205.186-593.413C354.722,423.542,396.899,422.506,369.684,426.633    M1227.308,424.811c-70.952,6.054-128.203,38.733-172.347,91.578c132.208,0.027,264.416,0.036,396.624,0   C1393.409,446.731,1315.443,417.046,1227.308,424.811 M1020.111,566.586c-18.126,31.33-32.331,64.804-43.792,99.1   c47.887,42.696,137.643,122.858,177.787,155.632c21.53,18.045,50.288,24.368,66.028,22.423   c42.398-4.625,37.171-4.143,329.506-265.595C1545.483,562.196,1577.489,566.615,1020.111,566.586 M1353.039,820.425   c65.832,53.887,131.547,107.909,197.325,161.868c0.045-112.438,0.018-224.876,0.018-337.323   C1484.854,703.744,1419.21,762.384,1353.039,820.425 M960.614,719.083c-18.099,72.344-27.524,146.654-31.214,221.07   c48.581-40.022,97.26-79.929,145.957-119.799C1036.835,786.906,998.849,752.843,960.614,719.083 M927.801,1006.297   c-0.054,3.573-0.009,7.156,0.036,10.747c195.208,0.009,390.406,0.018,585.614-0.009c-6.977-5.883-163.306-134.186-199.371-163.565   c-61.635,52.45-131.726,51.944-185.157,11.855c-5.146-3.752-9.889-8.022-14.973-11.837   C1051.977,904.517,989.862,955.376,927.801,1006.297 M748.182,1067.162c-0.166,55.463-0.047,347.701-0.107,520.006   c37.816,0.054,75.623-0.071,113.43,0.063c0.206-173.329,0.009-346.667,0.098-520.006   C823.796,1067.17,785.989,1067.304,748.182,1067.162z" /><path
     inkscape:connector-curvature="0"
     id="path6836"
     d="m 1211.637,665.77948 -47.7775,-36.31089 -34.3997,61.15518 68.7995,97.46607 28.6665,9.5555 61.1552,-68.79958 7.6444,-68.79958 -38.222,-28.66649 z"
     style="fill:#cd4f4a;stroke:none;stroke-width:1px;stroke-linecap:butt;stroke-linejoin:miter;stroke-opacity:1;fill-opacity:1" /><path
     id="path6274"
     d="M1133.595,627.531c24.207-17.332,56.168-17.594,80.438,0.84c85.19-61.711,199.043,92.841,10.622,191.107   c-7.254,3.457-16.107,2.975-23.04-1.036C1080.014,751.777,1083.84,662.773,1133.595,627.531 M1214.059,767.744   c97.436-58.255,58.045-113.095,34.028-101.611c-6.414,2.814-10.309,8.925-14.052,14.517c-7.477,10.229-23.067,12.927-33.519,5.744   c-8.57-4.927-14.215-25.207-30.401-21.316C1146.246,670.691,1132.109,717.142,1214.059,767.744z" /></g>
</g>
</svg>