<svg xmlns="http://www.w3.org/2000/svg" viewBox="0 0 141.42 176.77499999999998" x="0px" y="0px"><title>Asset 43</title><g data-name="Layer 2"><g data-name="Layer 1"><path d="M70.71,0a70.71,70.71,0,1,0,70.71,70.71A70.71,70.71,0,0,0,70.71,0Zm3.22,94.56L55.29,113.2a13.52,13.52,0,0,1-19.1,0l-8-8a13.51,13.51,0,0,1,0-19.09L46.86,67.48a13.52,13.52,0,0,1,18.47-.58l-6.41,6.4a4.5,4.5,0,0,0-5.7.55L34.58,92.49a4.5,4.5,0,0,0,0,6.37l8,8a4.5,4.5,0,0,0,6.36,0L67.57,88.19A4.47,4.47,0,0,0,68.89,85a4.42,4.42,0,0,0-.78-2.52l6.4-6.39a13.47,13.47,0,0,1-.58,18.46ZM85.2,49.85a4.5,4.5,0,1,1,6.37,6.36L81,66.76l-6.36,6.37-1.54,1.53L56.21,91.57a4.5,4.5,0,0,1-6.36-6.36L60.39,74.66l6.37-6.37,1.53-1.53,6.36-6.36Zm28,5.44L94.56,73.93a13.52,13.52,0,0,1-18.47.59l6.4-6.41a4.5,4.5,0,0,0,5.7-.54l18.65-18.64a4.52,4.52,0,0,0,0-6.37l-8-8a4.49,4.49,0,0,0-6.36,0L73.84,53.22a4.51,4.51,0,0,0-.54,5.71l-6.4,6.4a13.52,13.52,0,0,1,.58-18.47L86.13,28.22a13.5,13.5,0,0,1,19.09,0l8,8A13.52,13.52,0,0,1,113.2,55.29Z"/></g></g><text x="0" y="156.42" fill="#000000" font-size="5px" font-weight="bold" font-family="'Helvetica Neue', Helvetica, Arial-Unicode, Arial, Sans-serif">Created by DAVIVONGSA PATHRPOL</text><text x="0" y="161.42" fill="#000000" font-size="5px" font-weight="bold" font-family="'Helvetica Neue', Helvetica, Arial-Unicode, Arial, Sans-serif">from the Noun Project</text></svg>